<?xml version="1.0" encoding="utf-8"?>
<!-- Generator: Adobe Illustrator 21.0.1, SVG Export Plug-In . SVG Version: 6.00 Build 0)  -->
<svg version="1.1" id="Layer_1" xmlns="http://www.w3.org/2000/svg" xmlns:xlink="http://www.w3.org/1999/xlink" x="0px" y="0px"
	 viewBox="0 0 612.9 491" style="enable-background:new 0 0 612.9 491;" xml:space="preserve">
<style type="text/css">
	.st0{fill:#B095FF;}
</style>
<title>shape-bg-fitnesstracker</title>
<path class="st0" d="M610.9,3.4c-3.8,10.8-7.4,14-11.1,17.2c-4.2,3.4-10.3,5-19.4,5H46.1c-15,0-25.2,4-36.1,14.3
	c-4.5,4.2-7.8,9.5-9.6,15.3c0,0.2-0.1,1.2-0.1,2.9l0,0C0,73.5-0.1,148,0.2,220.8L0,446.9l0,0V491h0.1c1.4-0.3,2-2,2.5-3.5
	c3.8-10.8,7.4-14,11.1-17.2c4.1-3.4,10.3-5,19.4-5h533.4c15,0,25.2-4,36.1-14.4c4.5-4.2,7.8-9.4,9.6-15.3c0.2-0.8,0.4-1.6,0.5-2.5
	l0,0V244.5c0.1-1.1,0.2-2.2,0.3-3.3V0C611.8,0.6,611.3,2,610.9,3.4z"/>
</svg>
