<svg xmlns="http://www.w3.org/2000/svg" viewBox="0 0 612.88 491"><defs><style>.a{fill:#ff8095;}</style></defs><title>shape-bg-healthasses</title><path class="a" d="M610.87,3.36c-3.82,10.84-7.4,14-11.1,17.18-4.15,3.44-10.32,5-19.36,5H46.12c-15,0-25.19,4-36.1,14.35A34.93,34.93,0,0,0,.45,55.2c0,.17-.09,1.17-.13,2.88h0C0,73.52-.12,148,.16,220.81L0,446.88H0V491H.14c1.42-.3,2-2,2.52-3.54,3.82-10.84,7.4-14,11.1-17.18,4.15-3.44,10.33-5,19.36-5H566.51c15,0,25.19-4,36.1-14.35a35,35,0,0,0,9.57-15.28,11.8,11.8,0,0,0,.45-2.46h0V244.48c.09-1.08.17-2.17.26-3.27V0C611.83.56,611.33,2,610.87,3.36Z"/></svg>