<svg xmlns="http://www.w3.org/2000/svg" viewBox="0 0 437.01 254"><defs><style>.a{fill:#ed1b2e;}.b{fill:#68737a;}.c{fill:none;}</style></defs><title>pulse-logo</title><path class="a" d="M77.31,84.63c-21.16,0-37.12,15.9-37.12,37V182a16.2,16.2,0,0,0,.1,2.18c.17,1.61,1.16,2.15,6.31,2.15s6.09-.54,6.26-2.15c.07-.67.09-1.55.1-2.18V148.19A33.61,33.61,0,0,0,78,158.9c21.1,0,36.41-15.68,36.41-37.28a36.61,36.61,0,0,0-36.23-37Zm0,62.54c-14,0-24.61-11-24.61-25.55,0-14.39,10.58-25.24,24.61-25.24s24.56,11.12,24.56,25.39C101.87,135.83,91.54,147.17,77.31,147.17Zm106.47-22.51c0,20.27-16.14,21.84-21.09,21.84-13.63,0-21.44-8-21.44-22.07V98.59c0-7.1-1.9-11.87-6.76-17a16.59,16.59,0,0,0-7.2-4.51c-1.59-.4-1.81-.28-3.3.93-.28.22-6.78,5.59-6.78,5.59-.22.18-.86.74-.73,1.39s1,1,1.67,1.2c5.09,1.79,6.57,3.48,8.09,5.23,1.61,2,2.36,4.85,2.36,9.12v23.92c0,21.15,13.06,34.29,34.09,34.29,20.81,0,33.74-13.05,33.74-34.06l.06-33.26a16.2,16.2,0,0,0-.1-2.18c-.17-1.62-1.16-2.15-6.31-2.15s-6.09.53-6.26,2.15c-.07.67-.09,1.55-.1,2.18Zm35,29.17c-5.23-4.86-6.92-9.76-6.92-16.85V65.09c0-4.26-.75-7.16-2.37-9.12-1.51-1.74-3-3.43-8.09-5.23-.71-.24-1.53-.51-1.66-1.19s.51-1.22.72-1.4c0,0,6.51-5.37,6.79-5.59,1.49-1.21,1.71-1.33,3.29-.92a16.44,16.44,0,0,1,7.2,4.51c4.87,5.15,6.76,9.92,6.76,17v74.77c0,5.34,3.05,7.08,5,8s4.51,1.26,10.74,1.2c1.57,0,1.78.59,1.38,1.64l-2.94,7.37c-.74,1.77-1.49,2.32-2.81,2.51-6.71,1-12.87-.91-17-4.81Zm85.69-52.4c-.84,1.5-4.49,4-7.59,4.49-1.67.22-1.92,0-3.43-1.64-6.15-6.18-9.29-8-18-8-.82,0-13.45.11-13.57,8.88,0,6.89,8.54,8.93,16.13,10.21,8.93,1.59,27.51,4.89,27.51,22.23a18,18,0,0,1-5.5,13.24c-5.2,5.14-13,8.09-23.33,8.09-11-.11-21.22-2.62-30.1-12.76-1.59-1.82-1.56-2.5-1.09-3.2a14.21,14.21,0,0,1,7.74-5.26c2.26-.53,2.06-.49,3.39.95,7.1,7.28,15,9.15,24.46,8.3,6.11-.55,12.25-3.75,12.18-9.74-.06-5.48-5.62-8.75-18.59-10.92-22.47-3.77-25.42-15.09-25.18-21.5a18.55,18.55,0,0,1,9-15.53c4.67-3,11-4.61,17.8-4.61,11.14,0,21.33,3.78,28,14.19.86,1.24.85,1.46.21,2.58Zm75.28,46.7h0c1-1.07,1.68-1.62.19-3.78a14.06,14.06,0,0,0-5.8-4.68c-1.39-.58-1.7-.32-3.28.89h0A27.93,27.93,0,0,1,352,147.22c-12,0-21.65-8.54-23.58-20.84h50.76a5.54,5.54,0,0,0,5.56-5.52h0c0-17.46-10.6-36.26-33.88-36.26-22.81,0-34.75,18.61-34.75,37,0,10.65,3.74,20.27,10.55,27.09,6.27,6.3,16,10.21,25.45,10.21,14,.1,21.79-4.77,27.65-10.77Zm-7.16-32.76H328.74C331.07,103.91,340,96.25,351,96.25c4.37,0,18.78,1.39,21.63,19.12Zm23.14-17.15c.93-.45,7.4-5.22,7.4-5.22,1-.79,1.11-1,.75-2.17A36.42,36.42,0,0,0,395,76.26a34.1,34.1,0,0,0-9.36-6.93c-1.34-.62-1.67-.52-2.66.16-1.18.83-6.48,5.43-6.71,5.62-1.66,1.4-1,2.24.33,2.83,7.38,3.24,13.28,9.49,16.64,19,.62,1.86,1.71,1.77,2.48,1.28Z"/><path class="b" d="M124.4,202.64a7.65,7.65,0,0,1,5.2-2,6.66,6.66,0,0,1,4.58,1.62c1.88,1.66,2.75,4.44,2.75,7.44,0,4.94-2.67,9.13-7.55,9.13a6.72,6.72,0,0,1-5.19-2.24l-.08,1.3c0,.44-.21.58-.72.58H122c-.47,0-.69-.18-.69-.69v-24c0-.47.11-.68.54-.75l1.81-.26c.51-.07.72.15.72.62Zm0,2.64v8.63a5.51,5.51,0,0,0,4.55,2.38c3.25,0,4.77-3,4.77-6.5,0-3.82-1.34-6.68-4.73-6.68A6.82,6.82,0,0,0,124.4,205.28Zm26.76-3.72c.14-.43.39-.58.9-.58h1.73c.58,0,.61.33.47.73l-7,18.8c-1.59,4.26-3.39,5.85-7.29,5.85a6.74,6.74,0,0,1-1.66-.21c-.29-.08-.51-.22-.43-.65l.25-1.45c.07-.36.25-.5.58-.47a8.57,8.57,0,0,0,1.37.15A3.84,3.84,0,0,0,144,221l.91-2.27-6.47-17.08c-.14-.39.08-.65.51-.65H141c.54,0,.76.15.86.51l4.7,13.46ZM171.34,209h-2.13v8.7c0,.47-.22.72-.69.72h-2c-.5,0-.72-.18-.72-.72V194.38c0-.62.29-.83.76-.83h4.66c5.41,0,9.46,2.06,9.46,7.58S176.83,209,171.34,209Zm-2.13-2.57h2.24c3.5,0,5.88-1.22,5.88-5.23s-2.6-5.09-6.13-5.09h-2Zm18.13,11.23a.66.66,0,0,1-.55.76H185c-.47,0-.72-.25-.72-.76V201.71c0-.51.18-.73.68-.73h1.59c.44,0,.69.18.69.65v1.23a5,5,0,0,1,4.23-2.27c.79,0,1.33.1,1.26.65l-.25,1.62a.46.46,0,0,1-.49.43h0a9.87,9.87,0,0,0-1-.1,4.71,4.71,0,0,0-3.61,2.16Zm19.28-15.95a.64.64,0,0,1,.54-.73H209c.47,0,.69.22.69.73v16c0,.5-.19.72-.69.72h-1.59c-.43,0-.68-.18-.68-.65v-1.15a8.75,8.75,0,0,1-5.7,2.16c-4.16,0-5.67-2.67-5.67-6.53V201.71a.64.64,0,0,1,.57-.71h1.73c.47,0,.69.22.69.73V211.8c0,2.56.57,4.37,3.46,4.37a8,8,0,0,0,4.77-2.13Zm14.44,17.07c-5.2,0-7.44-4.26-7.44-9,0-5.31,3.11-9.2,7.87-9.2a6.46,6.46,0,0,1,4.7,2v-8.81c0-.47.1-.68.54-.75l1.8-.26c.51-.07.72.15.72.62v24.29c0,.51-.25.76-.72.76h-1.37c-.54,0-.76-.22-.76-.72v-1.27A7.21,7.21,0,0,1,221.06,218.78Zm5.13-13.25a5.11,5.11,0,0,0-4.26-2.49c-3.25,0-5.13,2.64-5.13,6.61s1.7,6.68,4.84,6.68a6.1,6.1,0,0,0,4.55-2.39Zm10.14,4.62c.11,3.4,2,6.1,5.56,6.1a11.56,11.56,0,0,0,4.44-.75c.33-.15.65-.15.8.25l.43,1.19c.15.4,0,.58-.36.79a13.94,13.94,0,0,1-5.7,1.05c-5.49,0-8.38-3.68-8.38-9.1s3.1-9.09,8.3-9.09c4.7,0,7.08,3.46,7.08,7.65v.9c0,.83-.14,1-1.08,1Zm9.14-2.09v-.65c0-2.46-1.38-4.44-4.19-4.44-3,0-4.62,2.35-4.87,5.09Zm9.71,9.6c0,.51-.25.76-.72.76h-1.62a.66.66,0,0,1-.73-.76V201.71c0-.51.18-.73.69-.73h1.59c.43,0,.68.18.68.65v1.12a9.27,9.27,0,0,1,5.92-2.16c4.15,0,5.74,2.52,5.74,6.46v10.61c0,.51-.25.76-.72.76h-1.63c-.47,0-.72-.25-.72-.76V207.55c0-2.56-.65-4.4-3.54-4.4a8.23,8.23,0,0,0-5,2.09ZM272.3,196.9c0-.47.11-.68.54-.75l1.8-.26c.51-.07.73.15.73.62V201h4.22c.4,0,.54.15.54.54v1.09c0,.4-.14.54-.54.54h-4.22v9.71c0,2.35.43,3.5,2.56,3.5a6.81,6.81,0,0,0,2.2-.39c.36-.15.65-.08.76.32l.32,1.08c.11.4,0,.58-.47.76a10.17,10.17,0,0,1-3.39.65c-4.19,0-5-2-5-5.7v-9.93h-2c-.4,0-.54-.14-.54-.54v-1.09c0-.39.14-.54.54-.54h2Zm15.52-.18a1.72,1.72,0,0,1-1.7,1.74H286a1.75,1.75,0,0,1-1.88-1.62s0-.08,0-.12a1.72,1.72,0,0,1,1.71-1.73h.13a1.75,1.75,0,0,1,1.88,1.62s0,.08,0,.11Zm-.32,20.94a.66.66,0,0,1-.55.76h-1.8c-.47,0-.72-.25-.72-.76V201.71A.64.64,0,0,1,285,201h1.84c.47,0,.69.22.69.73Zm16.68-1.91a6.62,6.62,0,0,1-5.42,3c-5,0-7.18-4.22-7.18-8.77,0-6,3.57-9.42,7.69-9.42a6.11,6.11,0,0,1,4.83,2.2V201.6c0-.43.22-.65.69-.65h1.59c.47,0,.68.22.68.69V214.3c0,1.34,0,1.95.8,1.95H308c.43,0,.61.15.61.55v1.08c0,.4-.18.54-.61.54h-1.4a2.37,2.37,0,0,1-2.35-2.67ZM304,205.64a5,5,0,0,0-4.37-2.6c-2.77,0-4.87,2.46-4.87,6.75,0,4,1.84,6.43,4.44,6.43a5.41,5.41,0,0,0,4.8-3.65Zm11.27,12c0,.51-.25.76-.72.76H313c-.47,0-.72-.25-.72-.76v-23.9c0-.47.11-.68.54-.75l1.81-.26c.5-.07.72.15.72.62Z"/><rect class="c" width="437.01" height="254"/></svg>